<svg xmlns="http://www.w3.org/2000/svg" viewBox="0 0 240 218" width="240" height="218">
	<defs>
		<linearGradient id="grd1" gradientUnits="userSpaceOnUse"  x1="5.826" y1="7.227" x2="22240.731" y2="7.227">
			<stop offset="0" stop-color="#177775"  />
			<stop offset="100" stop-color="#28d2bf"  />
		</linearGradient>
	</defs>
	<style>
		tspan { white-space:pre }
		.shp0 { fill: #e5f4f3 } 
		.shp1 { fill: url(#grd1) } 
	</style>
	<path id="Layer" class="shp0" d="M-33 -41L267 -41L267 259L-33 259L-33 -41Z" />
	<g id="aa1e2497-7a1e-b185-a62e-7e92dbf25df5">
		<path id="Layer" class="shp1" d="M228.17 37.61L228.17 37.61C228.17 44.99 226.66 51.28 223.62 56.49L223.62 56.49L223.62 56.49C220.44 61.84 216.38 65.89 211.47 68.64L211.47 68.64L211.47 68.64C206.69 71.24 201.85 72.54 196.93 72.54L196.93 72.54L196.93 72.54C192.15 72.54 187.74 71.53 183.69 69.51L183.69 69.51L183.69 69.51C179.78 67.48 176.53 64.8 173.92 61.48L173.92 61.48L100.58 184.73L100.58 184.73C95.23 193.99 90.16 200.65 85.39 204.7L85.39 204.7L85.39 204.7C80.76 208.75 75.55 210.77 69.76 210.77L69.76 210.77L69.76 210.77C63.4 210.77 58.34 208.75 54.57 204.7L54.57 204.7L54.57 204.7C50.81 200.5 48.14 193.85 46.55 184.73L46.55 184.73L21.16 44.33L21.16 44.33C20.43 40.72 19.28 37.82 17.68 35.65L17.68 35.65L17.68 35.65C16.09 33.34 14 30.88 11.39 28.28L11.39 28.28L11.39 28.28C9.37 26.4 7.92 24.95 7.05 23.94L7.05 23.94L7.05 23.94C6.33 22.78 5.97 21.4 5.97 19.81L5.97 19.81L5.97 19.81C4.95 12.29 9.37 8.53 19.2 8.53L19.2 8.53L95.15 8.53L95.15 8.53C99.78 8.53 103.33 9.47 105.79 11.35L105.79 11.35L105.79 11.35C108.25 13.38 109.4 15.98 109.26 19.16L109.26 19.16L109.26 19.16C109.26 21.04 108.9 22.56 108.17 23.72L108.17 23.72L108.17 23.72C107.45 24.88 106.29 26.4 104.7 28.28L104.7 28.28L104.7 28.28C102.82 30.3 101.37 32.25 100.36 34.14L100.36 34.14L100.36 34.14C99.35 35.87 98.84 38.04 98.84 40.65L98.84 40.65L98.84 40.65C98.84 41.95 98.92 42.96 99.06 43.68L99.06 43.68L110.78 114.64L151.14 42.82L151.14 42.82C158.23 29.94 165.17 20.83 171.97 15.47L171.97 15.47L171.97 15.47C178.92 9.98 187.45 7.23 197.58 7.23L197.58 7.23L197.58 7.23C206.84 7.23 214.29 9.98 219.93 15.47L219.93 15.47L219.93 15.47C225.43 20.83 228.17 28.2 228.17 37.61L228.17 37.61Z" />
	</g>
</svg>